<svg width="22" height="22" viewBox="0 0 22 22" fill="none" xmlns="http://www.w3.org/2000/svg">
<path d="M13.0156 11.0175L21.5819 2.4509C22.1394 1.89367 22.1394 0.992719 21.5819 0.435496C21.0247 -0.121728 20.1238 -0.121728 19.5665 0.435496L10.9999 9.00212L2.43352 0.435496C1.87603 -0.121728 0.975338 -0.121728 0.418114 0.435496C-0.139371 0.992719 -0.139371 1.89367 0.418114 2.4509L8.98449 11.0175L0.418114 19.5841C-0.139371 20.1414 -0.139371 21.0423 0.418114 21.5995C0.695812 21.8775 1.06094 22.0171 1.42582 22.0171C1.79069 22.0171 2.15556 21.8775 2.43352 21.5995L10.9999 13.0329L19.5665 21.5995C19.8445 21.8775 20.2094 22.0171 20.5742 22.0171C20.9391 22.0171 21.304 21.8775 21.5819 21.5995C22.1394 21.0423 22.1394 20.1414 21.5819 19.5841L13.0156 11.0175Z" fill="#3A3A3A"/>
</svg>
