<svg width="42" height="56" fill="none" xmlns="http://www.w3.org/2000/svg"><rect width="42" height="56" rx="4" fill="var(--color-primary, #FED35B)"/><rect width="41" height="56" rx="4" fill="#fff"/><rect width="39" height="56" rx="4" fill="var(--color-primary, #FED35B)"/><path d="M7 0H4a4 4 0 00-4 4v48a4 4 0 004 4h3V0z" fill="#000" fill-opacity=".15"/><path d="M30.479 20.882c-.296 0-.536.268-.536.6v6.517h-.953v-6.517c0-.331-.24-.6-.535-.6h-.009c-.296 0-.536.268-.536.6v6.517h-.952v-6.517c0-.331-.24-.6-.536-.6h-.008c-.296 0-.536.268-.536.6v6.517h-.953v-6.517c0-.331-.24-.6-.535-.6-.296 0-.536.268-.536.6v6.471c0 1.334.608 2.574 1.611 3.289l.77.548-.426 16.639c-.03.998.636 1.886 1.526 1.945.966.064 1.759-.814 1.727-1.882l-.428-16.702.769-.548c1.004-.715 1.611-1.955 1.611-3.289v-6.471c0-.331-.24-.6-.535-.6zM21.397 26.933c0-3.342-1.78-6.051-3.974-6.051-2.195 0-3.974 2.71-3.974 6.051 0 2.691 1.155 4.97 2.75 5.756l-.403 15.74c-.03.998.637 1.886 1.527 1.945.966.064 1.758-.814 1.726-1.882l-.404-15.802c1.596-.786 2.752-3.065 2.752-5.757z" fill="#344D5B"/><path d="M17.423 31.255c1.767 0 3.199-2.18 3.199-4.87s-1.432-4.87-3.199-4.87c-1.766 0-3.198 2.18-3.198 4.87s1.432 4.87 3.198 4.87z" fill="#293B44"/><path d="M13 6h18.462v8.422H13V6z" fill="#FFF"/></svg>