<svg width="42" height="56" viewBox="0 0 42 56" fill="none" xmlns="http://www.w3.org/2000/svg">
<path d="M38.495 0H3.49643C1.5654 0 0 1.65236 0 3.69074V52.3093C0 54.3476 1.5654 56 3.49643 56H38.495C40.4307 56 42 54.3435 42 52.3002V3.69983C42 1.65652 40.4307 0 38.495 0Z" fill="#FED35B"/>
<path d="M37.7006 1.07715H5.9569C4.20546 1.07715 2.78564 2.66751 2.78564 4.62942V51.4238C2.78564 53.3857 4.20546 54.9761 5.9569 54.9761H37.7006C39.4563 54.9761 40.8796 53.3817 40.8796 51.415V4.63816C40.8796 2.67152 39.4563 1.07715 37.7006 1.07715Z" fill="#EDEDED"/>
<path d="M36.3103 0H3.298C1.47656 0 0 1.65392 0 3.69424V52.3588C0 54.3991 1.47656 56.053 3.298 56.053H36.3103C38.1363 56.053 39.6165 54.395 39.6165 52.3497V3.70333C39.6165 1.65809 38.1363 0 36.3103 0Z" fill="#FEDA6F"/>
<path d="M3.298 0C1.47656 0 0 1.65392 0 3.69424V52.3588C0 54.3991 1.47656 56.053 3.298 56.053H5.38166V0H3.298Z" fill="var(--color-primary, #FED35B)"/>
<path d="M30.0798 21.5742H30.0798C29.784 21.5742 29.5441 21.8429 29.5441 22.1743V28.6913H28.5915V22.1743C28.5915 21.8429 28.3517 21.5742 28.0558 21.5742H28.0473C27.7515 21.5742 27.5116 21.8429 27.5116 22.1743V28.6913H26.559V22.1743C26.559 21.8429 26.3192 21.5742 26.0233 21.5742H26.0148C25.7189 21.5742 25.4791 21.8429 25.4791 22.1743V28.6913H24.5265V22.1743C24.5265 21.8429 24.2867 21.5742 23.9908 21.5742H23.9908C23.6949 21.5742 23.4551 21.8429 23.4551 22.1743V28.6457C23.4551 29.979 24.063 31.2191 25.0665 31.9342L25.8352 32.4825L25.4098 49.1212C25.3799 50.1195 26.0462 51.0077 26.9363 51.0666C27.9026 51.1305 28.6947 50.2521 28.6628 49.1847L28.2355 32.4825L29.0041 31.9342C30.0077 31.2191 30.6155 29.979 30.6155 28.6457V22.1743C30.6155 21.8429 30.3757 21.5742 30.0798 21.5742Z" fill="#344D5B"/>
<path d="M20.9977 27.6256C20.9977 24.2835 19.2186 21.5742 17.024 21.5742C14.8294 21.5742 13.0503 24.2835 13.0503 27.6256C13.0503 30.3168 14.2047 32.5948 15.7999 33.3812L15.3975 49.1213C15.3676 50.1195 16.0339 51.0077 16.924 51.0666C17.8903 51.1305 18.6824 50.2522 18.6505 49.1848L18.2463 33.3822C19.8424 32.5967 20.9977 30.3178 20.9977 27.6256Z" fill="#344D5B"/>
<path d="M17.0245 31.9471C18.7908 31.9471 20.2226 29.7667 20.2226 27.0771C20.2226 24.3874 18.7908 22.207 17.0245 22.207C15.2583 22.207 13.8264 24.3874 13.8264 27.0771C13.8264 29.7667 15.2583 31.9471 17.0245 31.9471Z" fill="#293B44"/>
<path d="M12.6011 6.69287H31.0636V15.1154H12.6011V6.69287Z" fill="#EDEDED"/>
</svg>
