<svg width="15" height="15" viewBox="0 0 15 15" fill="none" xmlns="http://www.w3.org/2000/svg"><g clip-path="url(#clip0)"><path d="M9.015 13.662a6.11 6.11 0 01-.375.082.604.604 0 00.22 1.186c.149-.028.3-.06.447-.097a.603.603 0 10-.292-1.17zM13.475 5.58a.6.6 0 00.762.383.603.603 0 00.383-.762 7.546 7.546 0 00-.157-.43.603.603 0 10-1.12.449c.047.118.091.24.132.36zM10.975 12.802c-.107.07-.216.138-.327.202a.603.603 0 10.603 1.044c.131-.076.262-.156.389-.24a.603.603 0 00-.665-1.006zM14.994 7.264a.603.603 0 00-1.205.048c.005.127.007.256.004.383a.603.603 0 101.205.027 7.501 7.501 0 00-.004-.458zM13.376 11.215a.603.603 0 00-.844.12 6.354 6.354 0 01-.24.3.603.603 0 00.918.782c.099-.115.195-.236.286-.358a.603.603 0 00-.12-.844zM14.262 9.036a.603.603 0 00-.755.395c-.038.121-.08.243-.126.362a.603.603 0 001.127.43c.054-.142.104-.287.15-.432a.603.603 0 00-.396-.755zM6.384 13.75a6.227 6.227 0 01-1.546-.492l-.017-.01a6.568 6.568 0 01-.343-.173l-.002-.001a6.3 6.3 0 01-2.12-9.143 6.266 6.266 0 011.546-1.539l.022-.015a6.303 6.303 0 017.064-.057l-.47.681c-.132.19-.051.328.178.307l2.047-.183c.23-.02.366-.22.305-.441l-.55-1.98c-.061-.222-.219-.249-.35-.06l-.472.683A7.447 7.447 0 005.648.29h-.004l-.022.006A7.436 7.436 0 001.5 3.06l-.025.031a7.074 7.074 0 00-.261.376c-.007.01-.011.02-.017.03A7.434 7.434 0 00.008 7.88v.016c.007.15.019.304.035.455 0 .01.003.02.004.029a7.442 7.442 0 002.163 4.492l.008.008.003.002c.295.29.615.56.96.803a7.434 7.434 0 002.99 1.251.603.603 0 10.213-1.187z"/><path d="M7.13 2.683a.488.488 0 00-.488.488v4.86l4.446 2.299a.485.485 0 00.657-.21.488.488 0 00-.21-.657L7.619 7.438V3.17a.488.488 0 00-.488-.488z"/></g><defs><clipPath id="clip0"><path fill="#fff" d="M0 0h15v15H0z"/></clipPath></defs></svg>